<?xml version="1.0" encoding="UTF-8" standalone="no"?>
<!DOCTYPE svg PUBLIC "-//W3C//DTD SVG 1.1//EN"
 "http://www.w3.org/Graphics/SVG/1.1/DTD/svg11.dtd">
<!-- Generated by graphviz version 8.0.5 (20230430.1635)
 -->
<!-- Title: Graphical Class Hierarchy Pages: 1 -->
<svg width="304pt" height="64pt"
 viewBox="0.00 0.00 304.00 64.25" xmlns="http://www.w3.org/2000/svg" xmlns:xlink="http://www.w3.org/1999/xlink">
<g id="graph0" class="graph" transform="scale(1 1) rotate(0) translate(4 60.25)">
<title>Graphical Class Hierarchy</title>
<!-- Node0 -->
<g id="node1" class="node">
<title>Node0</title>
<g id="a_node1"><a xlink:href="d5/d01/classLogging_1_1LoggerSink.html" target="_top" xlink:title=" ">
<polygon fill="white" stroke="#666666" points="104.5,-37.25 0,-37.25 0,-18 104.5,-18 104.5,-37.25"/>
<text text-anchor="middle" x="52.25" y="-23.75" font-family="Helvetica,sans-Serif" font-size="10.00">Logging::LoggerSink</text>
</a>
</g>
</g>
<!-- Node1 -->
<g id="node2" class="node">
<title>Node1</title>
<g id="a_node2"><a xlink:href="d7/d05/classLogging_1_1ExeConsoleLoggerSink.html" target="_top" xlink:title="The Logger sink to receive log messages and print them in the executables console.">
<polygon fill="white" stroke="#666666" points="296,-56.25 140.5,-56.25 140.5,-37 296,-37 296,-56.25"/>
<text text-anchor="middle" x="218.25" y="-42.75" font-family="Helvetica,sans-Serif" font-size="10.00">Logging::ExeConsoleLoggerSink</text>
</a>
</g>
</g>
<!-- Node0&#45;&gt;Node1 -->
<g id="edge1" class="edge">
<title>Node0&#45;&gt;Node1</title>
<path fill="none" stroke="#63b8ff" d="M115.49,-34.84C123.56,-35.77 131.89,-36.74 140.16,-37.69"/>
<polygon fill="#63b8ff" stroke="#63b8ff" points="116.03,-31.26 105.69,-33.58 115.22,-38.21 116.03,-31.26"/>
</g>
<!-- Node2 -->
<g id="node3" class="node">
<title>Node2</title>
<g id="a_node3"><a xlink:href="d7/d02/classLogging_1_1TestLoggerSink.html" target="_top" xlink:title="The Logger sink that will be used to demonstrate and test all the public API of the logging code that...">
<polygon fill="white" stroke="#666666" points="280.25,-19.25 156.25,-19.25 156.25,0 280.25,0 280.25,-19.25"/>
<text text-anchor="middle" x="218.25" y="-5.75" font-family="Helvetica,sans-Serif" font-size="10.00">Logging::TestLoggerSink</text>
</a>
</g>
</g>
<!-- Node0&#45;&gt;Node2 -->
<g id="edge2" class="edge">
<title>Node0&#45;&gt;Node2</title>
<path fill="none" stroke="#63b8ff" d="M115.59,-20.78C128.81,-19.33 142.75,-17.8 155.93,-16.36"/>
<polygon fill="#63b8ff" stroke="#63b8ff" points="115.25,-17.41 105.69,-21.98 116.01,-24.37 115.25,-17.41"/>
</g>
</g>
</svg>
