<?xml version="1.0" encoding="UTF-8" standalone="no"?>
<!DOCTYPE svg PUBLIC "-//W3C//DTD SVG 1.1//EN"
 "http://www.w3.org/Graphics/SVG/1.1/DTD/svg11.dtd">
<!-- Generated by graphviz version 8.0.5 (20230430.1635)
 -->
<!-- Title: headers/Logging/Logger.hpp Pages: 1 -->
<svg width="244pt" height="83pt"
 viewBox="0.00 0.00 243.62 82.50" xmlns="http://www.w3.org/2000/svg" xmlns:xlink="http://www.w3.org/1999/xlink">
<g id="graph0" class="graph" transform="scale(1 1) rotate(0) translate(4 78.5)">
<title>headers/Logging/Logger.hpp</title>
<!-- Node1 -->
<g id="node1" class="node">
<title>Node1</title>
<g id="a_node1"><a xlink:title="Declares the static struct to handle logging to different sinks.">
<polygon fill="#999999" stroke="#666666" points="191.5,-74.5 52.5,-74.5 52.5,-55.25 191.5,-55.25 191.5,-74.5"/>
<text text-anchor="middle" x="122" y="-61" font-family="Helvetica,sans-Serif" font-size="10.00">headers/Logging/Logger.hpp</text>
</a>
</g>
</g>
<!-- Node2 -->
<g id="node2" class="node">
<title>Node2</title>
<g id="a_node2"><a xlink:href="../../d9/d05/Logger_8cpp.html" target="_top" xlink:title=" ">
<polygon fill="white" stroke="#666666" points="118,-19.25 0,-19.25 0,0 118,0 118,-19.25"/>
<text text-anchor="middle" x="59" y="-5.75" font-family="Helvetica,sans-Serif" font-size="10.00">src/Logging/Logger.cpp</text>
</a>
</g>
</g>
<!-- Node1&#45;&gt;Node2 -->
<g id="edge1" class="edge">
<title>Node1&#45;&gt;Node2</title>
<path fill="none" stroke="#63b8ff" d="M103.15,-47.94C92.15,-38.64 78.68,-27.26 69.53,-19.52"/>
<polygon fill="#63b8ff" stroke="#63b8ff" points="100.42,-51.06 110.31,-54.84 104.93,-45.71 100.42,-51.06"/>
</g>
<!-- Node3 -->
<g id="node3" class="node">
<title>Node3</title>
<g id="a_node3"><a xlink:href="../../df/d02/main_8cpp.html" target="_top" xlink:title=" ">
<polygon fill="white" stroke="#666666" points="235.62,-19.25 136.38,-19.25 136.38,0 235.62,0 235.62,-19.25"/>
<text text-anchor="middle" x="186" y="-5.75" font-family="Helvetica,sans-Serif" font-size="10.00">src/Tests/main.cpp</text>
</a>
</g>
</g>
<!-- Node1&#45;&gt;Node3 -->
<g id="edge2" class="edge">
<title>Node1&#45;&gt;Node3</title>
<path fill="none" stroke="#63b8ff" d="M141.15,-47.94C152.33,-38.64 166.01,-27.26 175.3,-19.52"/>
<polygon fill="#63b8ff" stroke="#63b8ff" points="139.31,-45.76 133.86,-54.84 143.78,-51.14 139.31,-45.76"/>
</g>
</g>
</svg>
