<?xml version="1.0" encoding="UTF-8" standalone="no"?>
<!DOCTYPE svg PUBLIC "-//W3C//DTD SVG 1.1//EN"
 "http://www.w3.org/Graphics/SVG/1.1/DTD/svg11.dtd">
<!-- Generated by graphviz version 8.0.5 (20230430.1635)
 -->
<!-- Title: src/Tests/main.cpp Pages: 1 -->
<!--zoomable 204 -->
<svg id="main" version="1.1" xmlns="http://www.w3.org/2000/svg" xmlns:xlink="http://www.w3.org/1999/xlink" xml:space="preserve" onload="init(evt)">
<style type="text/css"><![CDATA[
.edge:hover path { stroke: red; }
.edge:hover polygon { stroke: red; fill: red; }
]]></style>
<script type="text/javascript"><![CDATA[
var edges = document.getElementsByTagName('g');
if (edges && edges.length) {
  for (var i=0;i<edges.length;i++) {
    if (edges[i].id.substr(0,4)=='edge') {
      edges[i].setAttribute('class','edge');
    }
  }
}
]]></script>
        <defs>
                <circle id="rim" cx="0" cy="0" r="7"/>
                <circle id="rim2" cx="0" cy="0" r="3.5"/>
                <g id="zoomPlus">
                        <use xlink:href="#rim" fill="#404040">
                                <set attributeName="fill" to="#808080" begin="zoomplus.mouseover" end="zoomplus.mouseout"/>
                        </use>
                        <path d="M-4,0h8M0,-4v8" fill="none" stroke="white" stroke-width="1.5" pointer-events="none"/>
                </g>
                <g id="zoomMin">
                        <use xlink:href="#rim" fill="#404040">
                                <set attributeName="fill" to="#808080" begin="zoomminus.mouseover" end="zoomminus.mouseout"/>
                        </use>
                        <path d="M-4,0h8" fill="none" stroke="white" stroke-width="1.5" pointer-events="none"/>
                </g>
                <g id="dirArrow">
                        <path fill="none" stroke="white" stroke-width="1.5" d="M0,-3.0v7 M-2.5,-0.5L0,-3.0L2.5,-0.5"/>
                </g>
               <g id="resetDef">
                       <use xlink:href="#rim2" fill="#404040">
                               <set attributeName="fill" to="#808080" begin="reset.mouseover" end="reset.mouseout"/>
                       </use>
               </g>
        </defs>

<script type="text/javascript">
var viewWidth = 504;
var viewHeight = 204;
var sectionId = 'dynsection-0';
</script>
<script xlink:href="../../svgpan.js"/>
<svg id="graph" class="graph">
<g id="viewport">
<title>src/Tests/main.cpp</title>
<!-- Node1 -->
<g id="node1" class="node">
<title>Node1</title>
<g id="a_node1"><a xlink:title=" ">
<polygon fill="#999999" stroke="#666666" points="267.88,-196.25 168.62,-196.25 168.62,-177 267.88,-177 267.88,-196.25"/>
<text text-anchor="middle" x="218.25" y="-182.75" font-family="Helvetica,sans-Serif" font-size="10.00">src/Tests/main.cpp</text>
</a>
</g>
</g>
<!-- Node2 -->
<g id="node2" class="node">
<title>Node2</title>
<g id="a_node2"><a xlink:href="../../dd/d05/ExeConsoleLoggerSink_8hpp.html" target="_top" xlink:title="Declares the class providing a sink for the logger to print messages in the console.">
<polygon fill="white" stroke="#666666" points="134.5,-141 0,-141 0,-110.5 134.5,-110.5 134.5,-141"/>
<text text-anchor="start" x="8" y="-127.5" font-family="Helvetica,sans-Serif" font-size="10.00">Logging/ExeConsoleLogger</text>
<text text-anchor="middle" x="67.25" y="-116.25" font-family="Helvetica,sans-Serif" font-size="10.00">Sink.hpp</text>
</a>
</g>
</g>
<!-- Node1&#45;&gt;Node2 -->
<g id="edge1" class="edge">
<title>Node1&#45;&gt;Node2</title>
<path fill="none" stroke="#63b8ff" d="M194.99,-176.55C173.71,-168.26 141.59,-155.73 114.88,-145.32"/>
<polygon fill="#63b8ff" stroke="#63b8ff" points="116.53,-141.82 105.94,-141.44 113.98,-148.34 116.53,-141.82"/>
</g>
<!-- Node6 -->
<g id="node6" class="node">
<title>Node6</title>
<g id="a_node6"><a xlink:href="../../d9/d01/Logger_8hpp.html" target="_top" xlink:title="Declares the static struct to handle logging to different sinks.">
<polygon fill="white" stroke="#666666" points="403,-135.38 301.5,-135.38 301.5,-116.12 403,-116.12 403,-135.38"/>
<text text-anchor="middle" x="352.25" y="-121.88" font-family="Helvetica,sans-Serif" font-size="10.00">Logging/Logger.hpp</text>
</a>
</g>
</g>
<!-- Node1&#45;&gt;Node6 -->
<g id="edge5" class="edge">
<title>Node1&#45;&gt;Node6</title>
<path fill="none" stroke="#63b8ff" d="M238.89,-176.55C261.09,-166.8 296.6,-151.2 321.96,-140.06"/>
<polygon fill="#63b8ff" stroke="#63b8ff" points="323.06,-142.96 330.8,-135.73 320.24,-136.55 323.06,-142.96"/>
</g>
<!-- Node11 -->
<g id="node11" class="node">
<title>Node11</title>
<g id="a_node11"><a xlink:href="../../dd/d02/TestLoggerSink_8hpp.html" target="_top" xlink:title=" ">
<polygon fill="white" stroke="#666666" points="283.62,-135.38 152.88,-135.38 152.88,-116.12 283.62,-116.12 283.62,-135.38"/>
<text text-anchor="middle" x="218.25" y="-121.88" font-family="Helvetica,sans-Serif" font-size="10.00">Tests/TestLoggerSink.hpp</text>
</a>
</g>
</g>
<!-- Node1&#45;&gt;Node11 -->
<g id="edge11" class="edge">
<title>Node1&#45;&gt;Node11</title>
<path fill="none" stroke="#63b8ff" d="M218.25,-176.68C218.25,-168.73 218.25,-156.81 218.25,-146.62"/>
<polygon fill="#63b8ff" stroke="#63b8ff" points="221.75,-146.78 218.25,-136.78 214.75,-146.78 221.75,-146.78"/>
</g>
<!-- Node3 -->
<g id="node3" class="node">
<title>Node3</title>
<g id="a_node3"><a xlink:href="../../d2/d00/LoggerSink_8hpp.html" target="_top" xlink:title="Declares the interface for a sink for the logger.">
<polygon fill="white" stroke="#666666" points="249.75,-74.5 128.75,-74.5 128.75,-55.25 249.75,-55.25 249.75,-74.5"/>
<text text-anchor="middle" x="189.25" y="-61" font-family="Helvetica,sans-Serif" font-size="10.00">Logging/LoggerSink.hpp</text>
</a>
</g>
</g>
<!-- Node2&#45;&gt;Node3 -->
<g id="edge2" class="edge">
<title>Node2&#45;&gt;Node3</title>
<path fill="none" stroke="#63b8ff" d="M97.72,-110.05C117.02,-100.73 141.8,-88.77 160.71,-79.65"/>
<polygon fill="#63b8ff" stroke="#63b8ff" points="162.06,-82.4 169.54,-74.9 159.01,-76.1 162.06,-82.4"/>
</g>
<!-- Node4 -->
<g id="node4" class="node">
<title>Node4</title>
<g id="a_node4"><a xlink:href="../../d6/d01/LogLevels_8hpp.html" target="_top" xlink:title="Declares the enum to describe log levels.">
<polygon fill="white" stroke="#666666" points="185.12,-19.25 105.38,-19.25 105.38,0 185.12,0 185.12,-19.25"/>
<text text-anchor="middle" x="145.25" y="-5.75" font-family="Helvetica,sans-Serif" font-size="10.00">LogLevels.hpp</text>
</a>
</g>
</g>
<!-- Node3&#45;&gt;Node4 -->
<g id="edge3" class="edge">
<title>Node3&#45;&gt;Node4</title>
<path fill="none" stroke="#63b8ff" d="M181.98,-55.08C175.91,-47.73 167.05,-37.01 159.56,-27.94"/>
<polygon fill="#63b8ff" stroke="#63b8ff" points="161.74,-26.09 152.67,-20.61 156.35,-30.55 161.74,-26.09"/>
</g>
<!-- Node5 -->
<g id="node5" class="node">
<title>Node5</title>
<g id="a_node5"><a xlink:href="../../d8/d03/Export_8hpp.html" target="_top" xlink:title="Declares the macros to export and import symbols from the library.">
<polygon fill="white" stroke="#666666" points="263.75,-19.25 202.75,-19.25 202.75,0 263.75,0 263.75,-19.25"/>
<text text-anchor="middle" x="233.25" y="-5.75" font-family="Helvetica,sans-Serif" font-size="10.00">Export.hpp</text>
</a>
</g>
</g>
<!-- Node3&#45;&gt;Node5 -->
<g id="edge4" class="edge">
<title>Node3&#45;&gt;Node5</title>
<path fill="none" stroke="#63b8ff" d="M196.52,-55.08C202.59,-47.73 211.45,-37.01 218.94,-27.94"/>
<polygon fill="#63b8ff" stroke="#63b8ff" points="222.15,-30.55 225.83,-20.61 216.76,-26.09 222.15,-30.55"/>
</g>
<!-- Node6&#45;&gt;Node3 -->
<g id="edge10" class="edge">
<title>Node6&#45;&gt;Node3</title>
<path fill="none" stroke="#63b8ff" d="M327.14,-115.68C299.74,-105.78 255.66,-89.86 224.73,-78.69"/>
<polygon fill="#63b8ff" stroke="#63b8ff" points="225.98,-75.06 215.39,-74.96 223.61,-81.64 225.98,-75.06"/>
</g>
<!-- Node7 -->
<g id="node7" class="node">
<title>Node7</title>
<g id="a_node7"><a xlink:title=" ">
<polygon fill="#e0e0e0" stroke="#999999" points="310.38,-74.5 268.12,-74.5 268.12,-55.25 310.38,-55.25 310.38,-74.5"/>
<text text-anchor="middle" x="289.25" y="-61" font-family="Helvetica,sans-Serif" font-size="10.00">cstdio</text>
</a>
</g>
</g>
<!-- Node6&#45;&gt;Node7 -->
<g id="edge6" class="edge">
<title>Node6&#45;&gt;Node7</title>
<path fill="none" stroke="#63b8ff" d="M342.68,-115.81C333.15,-106.9 318.31,-93.03 306.68,-82.17"/>
<polygon fill="#63b8ff" stroke="#63b8ff" points="309.6,-80.17 299.91,-75.9 304.82,-85.29 309.6,-80.17"/>
</g>
<!-- Node8 -->
<g id="node8" class="node">
<title>Node8</title>
<g id="a_node8"><a xlink:title=" ">
<polygon fill="#e0e0e0" stroke="#999999" points="376.38,-74.5 328.12,-74.5 328.12,-55.25 376.38,-55.25 376.38,-74.5"/>
<text text-anchor="middle" x="352.25" y="-61" font-family="Helvetica,sans-Serif" font-size="10.00">cstdarg</text>
</a>
</g>
</g>
<!-- Node6&#45;&gt;Node8 -->
<g id="edge7" class="edge">
<title>Node6&#45;&gt;Node8</title>
<path fill="none" stroke="#63b8ff" d="M352.25,-115.81C352.25,-107.85 352.25,-95.94 352.25,-85.74"/>
<polygon fill="#63b8ff" stroke="#63b8ff" points="355.75,-85.9 352.25,-75.9 348.75,-85.9 355.75,-85.9"/>
</g>
<!-- Node9 -->
<g id="node9" class="node">
<title>Node9</title>
<g id="a_node9"><a xlink:title=" ">
<polygon fill="#e0e0e0" stroke="#999999" points="434.25,-74.5 394.25,-74.5 394.25,-55.25 434.25,-55.25 434.25,-74.5"/>
<text text-anchor="middle" x="414.25" y="-61" font-family="Helvetica,sans-Serif" font-size="10.00">ctime</text>
</a>
</g>
</g>
<!-- Node6&#45;&gt;Node9 -->
<g id="edge8" class="edge">
<title>Node6&#45;&gt;Node9</title>
<path fill="none" stroke="#63b8ff" d="M361.67,-115.81C371.04,-106.9 385.65,-93.03 397.09,-82.17"/>
<polygon fill="#63b8ff" stroke="#63b8ff" points="398.9,-85.33 403.74,-75.9 394.08,-80.25 398.9,-85.33"/>
</g>
<!-- Node10 -->
<g id="node10" class="node">
<title>Node10</title>
<g id="a_node10"><a xlink:title=" ">
<polygon fill="#e0e0e0" stroke="#999999" points="495.75,-74.5 452.75,-74.5 452.75,-55.25 495.75,-55.25 495.75,-74.5"/>
<text text-anchor="middle" x="474.25" y="-61" font-family="Helvetica,sans-Serif" font-size="10.00">vector</text>
</a>
</g>
</g>
<!-- Node6&#45;&gt;Node10 -->
<g id="edge9" class="edge">
<title>Node6&#45;&gt;Node10</title>
<path fill="none" stroke="#63b8ff" d="M371.05,-115.68C390.98,-106.06 422.72,-90.74 445.74,-79.63"/>
<polygon fill="#63b8ff" stroke="#63b8ff" points="447.15,-82.36 454.63,-74.86 444.11,-76.05 447.15,-82.36"/>
</g>
<!-- Node11&#45;&gt;Node3 -->
<g id="edge12" class="edge">
<title>Node11&#45;&gt;Node3</title>
<path fill="none" stroke="#63b8ff" d="M213.85,-115.81C209.8,-107.6 203.67,-95.16 198.55,-84.75"/>
<polygon fill="#63b8ff" stroke="#63b8ff" points="201.25,-83.33 193.7,-75.9 194.97,-86.42 201.25,-83.33"/>
</g>
</g>
</svg>
        <g id="navigator" transform="translate(0 0)" fill="#404254">
                <rect fill="#f2f5e9" fill-opacity="0.5" stroke="#606060" stroke-width=".5" x="0" y="0" width="60" height="60"/>
                <use id="zoomplus" xlink:href="#zoomPlus" x="17" y="9" onmousedown="handleZoom(evt,'in')"/>
                <use id="zoomminus" xlink:href="#zoomMin" x="42" y="9" onmousedown="handleZoom(evt,'out')"/>
                <use id="reset" xlink:href="#resetDef" x="30" y="36" onmousedown="handleReset()"/>
                <g id="arrowUp" xlink:href="#dirArrow" transform="translate(30 24)" onmousedown="handlePan(0,-1)">
                  <use xlink:href="#rim" fill="#404040">
                        <set attributeName="fill" to="#808080" begin="arrowUp.mouseover" end="arrowUp.mouseout"/>
                  </use>
                  <path fill="none" stroke="white" stroke-width="1.5" d="M0,-3.0v7 M-2.5,-0.5L0,-3.0L2.5,-0.5"/>
                </g>
                <g id="arrowRight" xlink:href="#dirArrow" transform="rotate(90) translate(36 -43)" onmousedown="handlePan(1,0)">
                  <use xlink:href="#rim" fill="#404040">
                        <set attributeName="fill" to="#808080" begin="arrowRight.mouseover" end="arrowRight.mouseout"/>
                  </use>
                  <path fill="none" stroke="white" stroke-width="1.5" d="M0,-3.0v7 M-2.5,-0.5L0,-3.0L2.5,-0.5"/>
                </g>
                <g id="arrowDown" xlink:href="#dirArrow" transform="rotate(180) translate(-30 -48)" onmousedown="handlePan(0,1)">
                  <use xlink:href="#rim" fill="#404040">
                        <set attributeName="fill" to="#808080" begin="arrowDown.mouseover" end="arrowDown.mouseout"/>
                  </use>
                  <path fill="none" stroke="white" stroke-width="1.5" d="M0,-3.0v7 M-2.5,-0.5L0,-3.0L2.5,-0.5"/>
                </g>
                <g id="arrowLeft" xlink:href="#dirArrow" transform="rotate(270) translate(-36 17)" onmousedown="handlePan(-1,0)">
                  <use xlink:href="#rim" fill="#404040">
                        <set attributeName="fill" to="#808080" begin="arrowLeft.mouseover" end="arrowLeft.mouseout"/>
                  </use>
                  <path fill="none" stroke="white" stroke-width="1.5" d="M0,-3.0v7 M-2.5,-0.5L0,-3.0L2.5,-0.5"/>
                </g>
        </g>
        <svg viewBox="0 0 15 15" width="100%" height="30px" preserveAspectRatio="xMaxYMin meet">
         <g id="arrow_out" transform="scale(0.3 0.3)">
          <a xlink:href="main_8cpp__incl_org.svg" target="_base">
           <rect id="button" ry="5" rx="5" y="6" x="6" height="38" width="38"
                fill="#f2f5e9" fill-opacity="0.5" stroke="#606060" stroke-width="1.0"/>
           <path id="arrow"
             d="M 11.500037,31.436501 C 11.940474,20.09759 22.043105,11.32322 32.158766,21.979434 L 37.068811,17.246167 C 37.068811,17.246167 37.088388,32 37.088388,32 L 22.160133,31.978069 C 22.160133,31.978069 26.997745,27.140456 26.997745,27.140456 C 18.528582,18.264221 13.291696,25.230495 11.500037,31.436501 z"
             style="fill:#404040;"/>
          </a>
         </g>
        </svg>
</svg>
