<?xml version="1.0" encoding="UTF-8" standalone="no"?>
<!DOCTYPE svg PUBLIC "-//W3C//DTD SVG 1.1//EN"
 "http://www.w3.org/Graphics/SVG/1.1/DTD/svg11.dtd">
<!-- Generated by graphviz version 8.0.5 (20230430.1635)
 -->
<!-- Title: headers/Logging/LoggerSink.hpp Pages: 1 -->
<svg width="171pt" height="83pt"
 viewBox="0.00 0.00 171.12 82.50" xmlns="http://www.w3.org/2000/svg" xmlns:xlink="http://www.w3.org/1999/xlink">
<g id="graph0" class="graph" transform="scale(1 1) rotate(0) translate(4 78.5)">
<title>headers/Logging/LoggerSink.hpp</title>
<!-- Node1 -->
<g id="node1" class="node">
<title>Node1</title>
<g id="a_node1"><a xlink:title="Declares the interface for a sink for the logger.">
<polygon fill="#999999" stroke="#666666" points="163.12,-74.5 4.62,-74.5 4.62,-55.25 163.12,-55.25 163.12,-74.5"/>
<text text-anchor="middle" x="83.88" y="-61" font-family="Helvetica,sans-Serif" font-size="10.00">headers/Logging/LoggerSink.hpp</text>
</a>
</g>
</g>
<!-- Node2 -->
<g id="node2" class="node">
<title>Node2</title>
<g id="a_node2"><a xlink:href="../../d6/d01/LogLevels_8hpp.html" target="_top" xlink:title="Declares the enum to describe log levels.">
<polygon fill="white" stroke="#666666" points="79.75,-19.25 0,-19.25 0,0 79.75,0 79.75,-19.25"/>
<text text-anchor="middle" x="39.88" y="-5.75" font-family="Helvetica,sans-Serif" font-size="10.00">LogLevels.hpp</text>
</a>
</g>
</g>
<!-- Node1&#45;&gt;Node2 -->
<g id="edge1" class="edge">
<title>Node1&#45;&gt;Node2</title>
<path fill="none" stroke="#63b8ff" d="M76.61,-55.08C70.53,-47.73 61.68,-37.01 54.18,-27.94"/>
<polygon fill="#63b8ff" stroke="#63b8ff" points="56.37,-26.09 47.3,-20.61 50.97,-30.55 56.37,-26.09"/>
</g>
<!-- Node3 -->
<g id="node3" class="node">
<title>Node3</title>
<g id="a_node3"><a xlink:href="../../d8/d03/Export_8hpp.html" target="_top" xlink:title="Declares the macros to export and import symbols from the library.">
<polygon fill="white" stroke="#666666" points="158.38,-19.25 97.38,-19.25 97.38,0 158.38,0 158.38,-19.25"/>
<text text-anchor="middle" x="127.88" y="-5.75" font-family="Helvetica,sans-Serif" font-size="10.00">Export.hpp</text>
</a>
</g>
</g>
<!-- Node1&#45;&gt;Node3 -->
<g id="edge2" class="edge">
<title>Node1&#45;&gt;Node3</title>
<path fill="none" stroke="#63b8ff" d="M91.14,-55.08C97.22,-47.73 106.07,-37.01 113.57,-27.94"/>
<polygon fill="#63b8ff" stroke="#63b8ff" points="116.78,-30.55 120.45,-20.61 111.38,-26.09 116.78,-30.55"/>
</g>
</g>
</svg>
