<?xml version="1.0" encoding="UTF-8" standalone="no"?>
<!DOCTYPE svg PUBLIC "-//W3C//DTD SVG 1.1//EN"
 "http://www.w3.org/Graphics/SVG/1.1/DTD/svg11.dtd">
<!-- Generated by graphviz version 8.0.5 (20230430.1635)
 -->
<!-- Title: headers/Logging/LoggerSink.hpp Pages: 1 -->
<svg width="670pt" height="160pt"
 viewBox="0.00 0.00 670.25 160.25" xmlns="http://www.w3.org/2000/svg" xmlns:xlink="http://www.w3.org/1999/xlink">
<g id="graph0" class="graph" transform="scale(1 1) rotate(0) translate(4 156.25)">
<title>headers/Logging/LoggerSink.hpp</title>
<!-- Node1 -->
<g id="node1" class="node">
<title>Node1</title>
<g id="a_node1"><a xlink:title="Declares the interface for a sink for the logger.">
<polygon fill="#999999" stroke="#666666" points="443.75,-152.25 285.25,-152.25 285.25,-133 443.75,-133 443.75,-152.25"/>
<text text-anchor="middle" x="364.5" y="-138.75" font-family="Helvetica,sans-Serif" font-size="10.00">headers/Logging/LoggerSink.hpp</text>
</a>
</g>
</g>
<!-- Node2 -->
<g id="node2" class="node">
<title>Node2</title>
<g id="a_node2"><a xlink:href="../../dd/d05/ExeConsoleLoggerSink_8hpp.html" target="_top" xlink:title="Declares the class providing a sink for the logger to print messages in the console.">
<polygon fill="white" stroke="#666666" points="200.5,-97 58.5,-97 58.5,-66.5 200.5,-66.5 200.5,-97"/>
<text text-anchor="start" x="66.5" y="-83.5" font-family="Helvetica,sans-Serif" font-size="10.00">headers/Logging/ExeConsole</text>
<text text-anchor="middle" x="129.5" y="-72.25" font-family="Helvetica,sans-Serif" font-size="10.00">LoggerSink.hpp</text>
</a>
</g>
</g>
<!-- Node1&#45;&gt;Node2 -->
<g id="edge1" class="edge">
<title>Node1&#45;&gt;Node2</title>
<path fill="none" stroke="#63b8ff" d="M317.74,-129.91C280.51,-120.58 228.19,-107.47 188.15,-97.44"/>
<polygon fill="#63b8ff" stroke="#63b8ff" points="316.75,-133.52 327.3,-132.55 318.45,-126.73 316.75,-133.52"/>
</g>
<!-- Node5 -->
<g id="node5" class="node">
<title>Node5</title>
<g id="a_node5"><a xlink:href="../../d9/d01/Logger_8hpp.html" target="_top" xlink:title="Declares the static struct to handle logging to different sinks.">
<polygon fill="white" stroke="#666666" points="358,-91.38 219,-91.38 219,-72.12 358,-72.12 358,-91.38"/>
<text text-anchor="middle" x="288.5" y="-77.88" font-family="Helvetica,sans-Serif" font-size="10.00">headers/Logging/Logger.hpp</text>
</a>
</g>
</g>
<!-- Node1&#45;&gt;Node5 -->
<g id="edge4" class="edge">
<title>Node1&#45;&gt;Node5</title>
<path fill="none" stroke="#63b8ff" d="M344.41,-126.06C330.3,-115.13 311.91,-100.89 300.15,-91.78"/>
<polygon fill="#63b8ff" stroke="#63b8ff" points="341.91,-129.33 351.96,-132.68 346.2,-123.79 341.91,-129.33"/>
</g>
<!-- Node7 -->
<g id="node7" class="node">
<title>Node7</title>
<g id="a_node7"><a xlink:href="../../dd/d02/TestLoggerSink_8hpp.html" target="_top" xlink:title=" ">
<polygon fill="white" stroke="#666666" points="506.88,-97 376.12,-97 376.12,-66.5 506.88,-66.5 506.88,-97"/>
<text text-anchor="start" x="384.12" y="-83.5" font-family="Helvetica,sans-Serif" font-size="10.00">headers/Tests/TestLogger</text>
<text text-anchor="middle" x="441.5" y="-72.25" font-family="Helvetica,sans-Serif" font-size="10.00">Sink.hpp</text>
</a>
</g>
</g>
<!-- Node1&#45;&gt;Node7 -->
<g id="edge7" class="edge">
<title>Node1&#45;&gt;Node7</title>
<path fill="none" stroke="#63b8ff" d="M384.82,-126.09C396.49,-117.17 411.05,-106.03 422.49,-97.28"/>
<polygon fill="#63b8ff" stroke="#63b8ff" points="383.01,-123.83 377.19,-132.68 387.26,-129.39 383.01,-123.83"/>
</g>
<!-- Node9 -->
<g id="node9" class="node">
<title>Node9</title>
<g id="a_node9"><a xlink:href="../../d2/d04/LoggerSink_8cpp.html" target="_top" xlink:title=" ">
<polygon fill="white" stroke="#666666" points="662.25,-91.38 524.75,-91.38 524.75,-72.12 662.25,-72.12 662.25,-91.38"/>
<text text-anchor="middle" x="593.5" y="-77.88" font-family="Helvetica,sans-Serif" font-size="10.00">src/Logging/LoggerSink.cpp</text>
</a>
</g>
</g>
<!-- Node1&#45;&gt;Node9 -->
<g id="edge10" class="edge">
<title>Node1&#45;&gt;Node9</title>
<path fill="none" stroke="#63b8ff" d="M410.37,-129.83C453.93,-118.63 518.49,-102.03 558.18,-91.83"/>
<polygon fill="#63b8ff" stroke="#63b8ff" points="409.59,-126.67 400.78,-132.55 411.34,-133.45 409.59,-126.67"/>
</g>
<!-- Node3 -->
<g id="node3" class="node">
<title>Node3</title>
<g id="a_node3"><a xlink:href="../../d2/d05/ExeConsoleLoggerSink_8cpp.html" target="_top" xlink:title=" ">
<polygon fill="white" stroke="#666666" points="151,-30.5 0,-30.5 0,0 151,0 151,-30.5"/>
<text text-anchor="start" x="8" y="-17" font-family="Helvetica,sans-Serif" font-size="10.00">src/Logging/ExeConsoleLogger</text>
<text text-anchor="middle" x="75.5" y="-5.75" font-family="Helvetica,sans-Serif" font-size="10.00">Sink.cpp</text>
</a>
</g>
</g>
<!-- Node2&#45;&gt;Node3 -->
<g id="edge2" class="edge">
<title>Node2&#45;&gt;Node3</title>
<path fill="none" stroke="#63b8ff" d="M110.38,-57.91C102.83,-48.9 94.39,-38.82 87.7,-30.83"/>
<polygon fill="#63b8ff" stroke="#63b8ff" points="108.14,-59.69 117.25,-65.11 113.51,-55.2 108.14,-59.69"/>
</g>
<!-- Node4 -->
<g id="node4" class="node">
<title>Node4</title>
<g id="a_node4"><a xlink:href="../../df/d02/main_8cpp.html" target="_top" xlink:title=" ">
<polygon fill="white" stroke="#666666" points="268.12,-24.88 168.88,-24.88 168.88,-5.63 268.12,-5.63 268.12,-24.88"/>
<text text-anchor="middle" x="218.5" y="-11.38" font-family="Helvetica,sans-Serif" font-size="10.00">src/Tests/main.cpp</text>
</a>
</g>
</g>
<!-- Node2&#45;&gt;Node4 -->
<g id="edge3" class="edge">
<title>Node2&#45;&gt;Node4</title>
<path fill="none" stroke="#63b8ff" d="M158.28,-59.9C174.43,-48.19 193.75,-34.19 206.07,-25.26"/>
<polygon fill="#63b8ff" stroke="#63b8ff" points="156.74,-57.41 150.7,-66.11 160.85,-63.08 156.74,-57.41"/>
</g>
<!-- Node5&#45;&gt;Node4 -->
<g id="edge6" class="edge">
<title>Node5&#45;&gt;Node4</title>
<path fill="none" stroke="#63b8ff" d="M271.04,-64.67C257.49,-52.17 239.19,-35.31 228.15,-25.14"/>
<polygon fill="#63b8ff" stroke="#63b8ff" points="268.04,-66.58 277.77,-70.78 272.78,-61.43 268.04,-66.58"/>
</g>
<!-- Node6 -->
<g id="node6" class="node">
<title>Node6</title>
<g id="a_node6"><a xlink:href="../../d9/d05/Logger_8cpp.html" target="_top" xlink:title=" ">
<polygon fill="white" stroke="#666666" points="404.5,-24.88 286.5,-24.88 286.5,-5.63 404.5,-5.63 404.5,-24.88"/>
<text text-anchor="middle" x="345.5" y="-11.38" font-family="Helvetica,sans-Serif" font-size="10.00">src/Logging/Logger.cpp</text>
</a>
</g>
</g>
<!-- Node5&#45;&gt;Node6 -->
<g id="edge5" class="edge">
<title>Node5&#45;&gt;Node6</title>
<path fill="none" stroke="#63b8ff" d="M303.66,-63.59C314.59,-51.22 328.91,-35.03 337.64,-25.14"/>
<polygon fill="#63b8ff" stroke="#63b8ff" points="301.42,-60.97 297.43,-70.78 306.67,-65.61 301.42,-60.97"/>
</g>
<!-- Node7&#45;&gt;Node4 -->
<g id="edge9" class="edge">
<title>Node7&#45;&gt;Node4</title>
<path fill="none" stroke="#63b8ff" d="M380.16,-63.01C337.94,-50.8 283.58,-35.07 249.9,-25.33"/>
<polygon fill="#63b8ff" stroke="#63b8ff" points="379.04,-66.62 389.62,-66.03 380.99,-59.89 379.04,-66.62"/>
</g>
<!-- Node8 -->
<g id="node8" class="node">
<title>Node8</title>
<g id="a_node8"><a xlink:href="../../dc/d04/TestLoggerSink_8cpp.html" target="_top" xlink:title=" ">
<polygon fill="white" stroke="#666666" points="570.12,-24.88 422.88,-24.88 422.88,-5.63 570.12,-5.63 570.12,-24.88"/>
<text text-anchor="middle" x="496.5" y="-11.38" font-family="Helvetica,sans-Serif" font-size="10.00">src/Tests/TestLoggerSink.cpp</text>
</a>
</g>
</g>
<!-- Node7&#45;&gt;Node8 -->
<g id="edge8" class="edge">
<title>Node7&#45;&gt;Node8</title>
<path fill="none" stroke="#63b8ff" d="M461.01,-57.87C470.68,-46.53 481.8,-33.49 488.98,-25.07"/>
<polygon fill="#63b8ff" stroke="#63b8ff" points="457.81,-55.23 453.98,-65.11 463.13,-59.78 457.81,-55.23"/>
</g>
</g>
</svg>
