<?xml version="1.0" encoding="UTF-8" standalone="no"?>
<!DOCTYPE svg PUBLIC "-//W3C//DTD SVG 1.1//EN"
 "http://www.w3.org/Graphics/SVG/1.1/DTD/svg11.dtd">
<!-- Generated by graphviz version 8.0.5 (20230430.1635)
 -->
<!-- Title: src/Tests/TestLoggerSink.cpp Pages: 1 -->
<svg width="219pt" height="193pt"
 viewBox="0.00 0.00 219.25 193.00" xmlns="http://www.w3.org/2000/svg" xmlns:xlink="http://www.w3.org/1999/xlink">
<g id="graph0" class="graph" transform="scale(1 1) rotate(0) translate(4 189)">
<title>src/Tests/TestLoggerSink.cpp</title>
<!-- Node1 -->
<g id="node1" class="node">
<title>Node1</title>
<g id="a_node1"><a xlink:title=" ">
<polygon fill="#999999" stroke="#666666" points="155.38,-185 8.12,-185 8.12,-165.75 155.38,-165.75 155.38,-185"/>
<text text-anchor="middle" x="81.75" y="-171.5" font-family="Helvetica,sans-Serif" font-size="10.00">src/Tests/TestLoggerSink.cpp</text>
</a>
</g>
</g>
<!-- Node2 -->
<g id="node2" class="node">
<title>Node2</title>
<g id="a_node2"><a xlink:title=" ">
<polygon fill="#e0e0e0" stroke="#999999" points="53.5,-129.75 0,-129.75 0,-110.5 53.5,-110.5 53.5,-129.75"/>
<text text-anchor="middle" x="26.75" y="-116.25" font-family="Helvetica,sans-Serif" font-size="10.00">iostream</text>
</a>
</g>
</g>
<!-- Node1&#45;&gt;Node2 -->
<g id="edge1" class="edge">
<title>Node1&#45;&gt;Node2</title>
<path fill="none" stroke="#63b8ff" d="M72.67,-165.58C64.83,-158 53.31,-146.84 43.76,-137.6"/>
<polygon fill="#63b8ff" stroke="#63b8ff" points="46.65,-135.55 37.03,-131.11 41.78,-140.58 46.65,-135.55"/>
</g>
<!-- Node3 -->
<g id="node3" class="node">
<title>Node3</title>
<g id="a_node3"><a xlink:href="../../dd/d02/TestLoggerSink_8hpp.html" target="_top" xlink:title=" ">
<polygon fill="white" stroke="#666666" points="202.12,-129.75 71.38,-129.75 71.38,-110.5 202.12,-110.5 202.12,-129.75"/>
<text text-anchor="middle" x="136.75" y="-116.25" font-family="Helvetica,sans-Serif" font-size="10.00">Tests/TestLoggerSink.hpp</text>
</a>
</g>
</g>
<!-- Node1&#45;&gt;Node3 -->
<g id="edge2" class="edge">
<title>Node1&#45;&gt;Node3</title>
<path fill="none" stroke="#63b8ff" d="M90.83,-165.58C98.67,-158 110.19,-146.84 119.74,-137.6"/>
<polygon fill="#63b8ff" stroke="#63b8ff" points="121.72,-140.58 126.47,-131.11 116.85,-135.55 121.72,-140.58"/>
</g>
<!-- Node4 -->
<g id="node4" class="node">
<title>Node4</title>
<g id="a_node4"><a xlink:href="../../d2/d00/LoggerSink_8hpp.html" target="_top" xlink:title="Declares the interface for a sink for the logger.">
<polygon fill="white" stroke="#666666" points="197.25,-74.5 76.25,-74.5 76.25,-55.25 197.25,-55.25 197.25,-74.5"/>
<text text-anchor="middle" x="136.75" y="-61" font-family="Helvetica,sans-Serif" font-size="10.00">Logging/LoggerSink.hpp</text>
</a>
</g>
</g>
<!-- Node3&#45;&gt;Node4 -->
<g id="edge3" class="edge">
<title>Node3&#45;&gt;Node4</title>
<path fill="none" stroke="#63b8ff" d="M136.75,-110.33C136.75,-103.67 136.75,-94.24 136.75,-85.78"/>
<polygon fill="#63b8ff" stroke="#63b8ff" points="140.25,-85.86 136.75,-75.86 133.25,-85.86 140.25,-85.86"/>
</g>
<!-- Node5 -->
<g id="node5" class="node">
<title>Node5</title>
<g id="a_node5"><a xlink:href="../../d6/d01/LogLevels_8hpp.html" target="_top" xlink:title="Declares the enum to describe log levels.">
<polygon fill="white" stroke="#666666" points="132.62,-19.25 52.88,-19.25 52.88,0 132.62,0 132.62,-19.25"/>
<text text-anchor="middle" x="92.75" y="-5.75" font-family="Helvetica,sans-Serif" font-size="10.00">LogLevels.hpp</text>
</a>
</g>
</g>
<!-- Node4&#45;&gt;Node5 -->
<g id="edge4" class="edge">
<title>Node4&#45;&gt;Node5</title>
<path fill="none" stroke="#63b8ff" d="M129.48,-55.08C123.41,-47.73 114.55,-37.01 107.06,-27.94"/>
<polygon fill="#63b8ff" stroke="#63b8ff" points="109.24,-26.09 100.17,-20.61 103.85,-30.55 109.24,-26.09"/>
</g>
<!-- Node6 -->
<g id="node6" class="node">
<title>Node6</title>
<g id="a_node6"><a xlink:href="../../d8/d03/Export_8hpp.html" target="_top" xlink:title="Declares the macros to export and import symbols from the library.">
<polygon fill="white" stroke="#666666" points="211.25,-19.25 150.25,-19.25 150.25,0 211.25,0 211.25,-19.25"/>
<text text-anchor="middle" x="180.75" y="-5.75" font-family="Helvetica,sans-Serif" font-size="10.00">Export.hpp</text>
</a>
</g>
</g>
<!-- Node4&#45;&gt;Node6 -->
<g id="edge5" class="edge">
<title>Node4&#45;&gt;Node6</title>
<path fill="none" stroke="#63b8ff" d="M144.02,-55.08C150.09,-47.73 158.95,-37.01 166.44,-27.94"/>
<polygon fill="#63b8ff" stroke="#63b8ff" points="169.65,-30.55 173.33,-20.61 164.26,-26.09 169.65,-30.55"/>
</g>
</g>
</svg>
