<?xml version="1.0" encoding="UTF-8" standalone="no"?>
<!DOCTYPE svg PUBLIC "-//W3C//DTD SVG 1.1//EN"
 "http://www.w3.org/Graphics/SVG/1.1/DTD/svg11.dtd">
<!-- Generated by graphviz version 8.0.5 (20230430.1635)
 -->
<!-- Title: headers/Tests/TestLoggerSink.hpp Pages: 1 -->
<svg width="272pt" height="94pt"
 viewBox="0.00 0.00 272.25 93.75" xmlns="http://www.w3.org/2000/svg" xmlns:xlink="http://www.w3.org/1999/xlink">
<g id="graph0" class="graph" transform="scale(1 1) rotate(0) translate(4 89.75)">
<title>headers/Tests/TestLoggerSink.hpp</title>
<!-- Node1 -->
<g id="node1" class="node">
<title>Node1</title>
<g id="a_node1"><a xlink:title=" ">
<polygon fill="#999999" stroke="#666666" points="209,-85.75 78.25,-85.75 78.25,-55.25 209,-55.25 209,-85.75"/>
<text text-anchor="start" x="86.25" y="-72.25" font-family="Helvetica,sans-Serif" font-size="10.00">headers/Tests/TestLogger</text>
<text text-anchor="middle" x="143.62" y="-61" font-family="Helvetica,sans-Serif" font-size="10.00">Sink.hpp</text>
</a>
</g>
</g>
<!-- Node2 -->
<g id="node2" class="node">
<title>Node2</title>
<g id="a_node2"><a xlink:href="../../dc/d04/TestLoggerSink_8cpp.html" target="_top" xlink:title=" ">
<polygon fill="white" stroke="#666666" points="147.25,-19.25 0,-19.25 0,0 147.25,0 147.25,-19.25"/>
<text text-anchor="middle" x="73.62" y="-5.75" font-family="Helvetica,sans-Serif" font-size="10.00">src/Tests/TestLoggerSink.cpp</text>
</a>
</g>
</g>
<!-- Node1&#45;&gt;Node2 -->
<g id="edge1" class="edge">
<title>Node1&#45;&gt;Node2</title>
<path fill="none" stroke="#63b8ff" d="M118.2,-48.12C106.57,-38.33 93.4,-27.26 84.42,-19.7"/>
<polygon fill="#63b8ff" stroke="#63b8ff" points="115.42,-51.19 125.32,-54.95 119.92,-45.83 115.42,-51.19"/>
</g>
<!-- Node3 -->
<g id="node3" class="node">
<title>Node3</title>
<g id="a_node3"><a xlink:href="../../df/d02/main_8cpp.html" target="_top" xlink:title=" ">
<polygon fill="white" stroke="#666666" points="264.25,-19.25 165,-19.25 165,0 264.25,0 264.25,-19.25"/>
<text text-anchor="middle" x="214.62" y="-5.75" font-family="Helvetica,sans-Serif" font-size="10.00">src/Tests/main.cpp</text>
</a>
</g>
</g>
<!-- Node1&#45;&gt;Node3 -->
<g id="edge2" class="edge">
<title>Node1&#45;&gt;Node3</title>
<path fill="none" stroke="#63b8ff" d="M169.41,-48.12C181.21,-38.33 194.56,-27.26 203.68,-19.7"/>
<polygon fill="#63b8ff" stroke="#63b8ff" points="167.64,-45.87 162.18,-54.95 172.11,-51.26 167.64,-45.87"/>
</g>
</g>
</svg>
