<?xml version="1.0" encoding="UTF-8" standalone="no"?>
<!DOCTYPE svg PUBLIC "-//W3C//DTD SVG 1.1//EN"
 "http://www.w3.org/Graphics/SVG/1.1/DTD/svg11.dtd">
<!-- Generated by graphviz version 8.0.5 (20230430.1635)
 -->
<!-- Title: Logging::LoggerSink Pages: 1 -->
<svg width="306pt" height="83pt"
 viewBox="0.00 0.00 305.75 82.50" xmlns="http://www.w3.org/2000/svg" xmlns:xlink="http://www.w3.org/1999/xlink">
<g id="graph0" class="graph" transform="scale(1 1) rotate(0) translate(4 78.5)">
<title>Logging::LoggerSink</title>
<!-- Node1 -->
<g id="node1" class="node">
<title>Node1</title>
<g id="a_node1"><a xlink:title=" ">
<polygon fill="#999999" stroke="#666666" points="209,-74.5 104.5,-74.5 104.5,-55.25 209,-55.25 209,-74.5"/>
<text text-anchor="middle" x="156.75" y="-61" font-family="Helvetica,sans-Serif" font-size="10.00">Logging::LoggerSink</text>
</a>
</g>
</g>
<!-- Node2 -->
<g id="node2" class="node">
<title>Node2</title>
<g id="a_node2"><a xlink:href="../../d7/d05/classLogging_1_1ExeConsoleLoggerSink.html" target="_top" xlink:title="The Logger sink to receive log messages and print them in the executables console.">
<polygon fill="white" stroke="#666666" points="155.5,-19.25 0,-19.25 0,0 155.5,0 155.5,-19.25"/>
<text text-anchor="middle" x="77.75" y="-5.75" font-family="Helvetica,sans-Serif" font-size="10.00">Logging::ExeConsoleLoggerSink</text>
</a>
</g>
</g>
<!-- Node1&#45;&gt;Node2 -->
<g id="edge1" class="edge">
<title>Node1&#45;&gt;Node2</title>
<path fill="none" stroke="#63b8ff" d="M134.39,-48.8C120.48,-39.42 103.04,-27.67 91.22,-19.7"/>
<polygon fill="#63b8ff" stroke="#63b8ff" points="132.1,-52.15 142.35,-54.84 136.01,-46.35 132.1,-52.15"/>
</g>
<!-- Node3 -->
<g id="node3" class="node">
<title>Node3</title>
<g id="a_node3"><a xlink:href="../../d7/d02/classLogging_1_1TestLoggerSink.html" target="_top" xlink:title="The Logger sink that will be used to demonstrate and test all the public API of the logging code that...">
<polygon fill="white" stroke="#666666" points="297.75,-19.25 173.75,-19.25 173.75,0 297.75,0 297.75,-19.25"/>
<text text-anchor="middle" x="235.75" y="-5.75" font-family="Helvetica,sans-Serif" font-size="10.00">Logging::TestLoggerSink</text>
</a>
</g>
</g>
<!-- Node1&#45;&gt;Node3 -->
<g id="edge2" class="edge">
<title>Node1&#45;&gt;Node3</title>
<path fill="none" stroke="#63b8ff" d="M179.11,-48.8C193.02,-39.42 210.46,-27.67 222.28,-19.7"/>
<polygon fill="#63b8ff" stroke="#63b8ff" points="177.49,-46.35 171.15,-54.84 181.4,-52.15 177.49,-46.35"/>
</g>
</g>
</svg>
