<?xml version="1.0" encoding="UTF-8" standalone="no"?>
<!DOCTYPE svg PUBLIC "-//W3C//DTD SVG 1.1//EN"
 "http://www.w3.org/Graphics/SVG/1.1/DTD/svg11.dtd">
<!-- Generated by graphviz version 8.0.5 (20230430.1635)
 -->
<!-- Title: src/Logging/ExeConsoleLoggerSink.cpp Pages: 1 -->
<svg width="221pt" height="216pt"
 viewBox="0.00 0.00 221.25 215.50" xmlns="http://www.w3.org/2000/svg" xmlns:xlink="http://www.w3.org/1999/xlink">
<g id="graph0" class="graph" transform="scale(1 1) rotate(0) translate(4 211.5)">
<title>src/Logging/ExeConsoleLoggerSink.cpp</title>
<!-- Node1 -->
<g id="node1" class="node">
<title>Node1</title>
<g id="a_node1"><a xlink:title=" ">
<polygon fill="#999999" stroke="#666666" points="158.25,-207.5 7.25,-207.5 7.25,-177 158.25,-177 158.25,-207.5"/>
<text text-anchor="start" x="15.25" y="-194" font-family="Helvetica,sans-Serif" font-size="10.00">src/Logging/ExeConsoleLogger</text>
<text text-anchor="middle" x="82.75" y="-182.75" font-family="Helvetica,sans-Serif" font-size="10.00">Sink.cpp</text>
</a>
</g>
</g>
<!-- Node2 -->
<g id="node2" class="node">
<title>Node2</title>
<g id="a_node2"><a xlink:title=" ">
<polygon fill="#e0e0e0" stroke="#999999" points="53.5,-135.38 0,-135.38 0,-116.12 53.5,-116.12 53.5,-135.38"/>
<text text-anchor="middle" x="26.75" y="-121.88" font-family="Helvetica,sans-Serif" font-size="10.00">iostream</text>
</a>
</g>
</g>
<!-- Node1&#45;&gt;Node2 -->
<g id="edge1" class="edge">
<title>Node1&#45;&gt;Node2</title>
<path fill="none" stroke="#63b8ff" d="M70.04,-176.61C61.56,-166.84 50.37,-153.95 41.49,-143.73"/>
<polygon fill="#63b8ff" stroke="#63b8ff" points="43.61,-141.83 34.41,-136.57 38.32,-146.42 43.61,-141.83"/>
</g>
<!-- Node3 -->
<g id="node3" class="node">
<title>Node3</title>
<g id="a_node3"><a xlink:href="../../dd/d05/ExeConsoleLoggerSink_8hpp.html" target="_top" xlink:title="Declares the class providing a sink for the logger to print messages in the console.">
<polygon fill="white" stroke="#666666" points="206,-141 71.5,-141 71.5,-110.5 206,-110.5 206,-141"/>
<text text-anchor="start" x="79.5" y="-127.5" font-family="Helvetica,sans-Serif" font-size="10.00">Logging/ExeConsoleLogger</text>
<text text-anchor="middle" x="138.75" y="-116.25" font-family="Helvetica,sans-Serif" font-size="10.00">Sink.hpp</text>
</a>
</g>
</g>
<!-- Node1&#45;&gt;Node3 -->
<g id="edge2" class="edge">
<title>Node1&#45;&gt;Node3</title>
<path fill="none" stroke="#63b8ff" d="M95.46,-176.61C102.4,-168.61 111.16,-158.53 118.98,-149.53"/>
<polygon fill="#63b8ff" stroke="#63b8ff" points="122.18,-152.17 126.09,-142.33 116.89,-147.58 122.18,-152.17"/>
</g>
<!-- Node4 -->
<g id="node4" class="node">
<title>Node4</title>
<g id="a_node4"><a xlink:href="../../d2/d00/LoggerSink_8hpp.html" target="_top" xlink:title="Declares the interface for a sink for the logger.">
<polygon fill="white" stroke="#666666" points="199.25,-74.5 78.25,-74.5 78.25,-55.25 199.25,-55.25 199.25,-74.5"/>
<text text-anchor="middle" x="138.75" y="-61" font-family="Helvetica,sans-Serif" font-size="10.00">Logging/LoggerSink.hpp</text>
</a>
</g>
</g>
<!-- Node3&#45;&gt;Node4 -->
<g id="edge3" class="edge">
<title>Node3&#45;&gt;Node4</title>
<path fill="none" stroke="#63b8ff" d="M138.75,-110.2C138.75,-102.87 138.75,-93.87 138.75,-85.91"/>
<polygon fill="#63b8ff" stroke="#63b8ff" points="142.25,-85.95 138.75,-75.95 135.25,-85.95 142.25,-85.95"/>
</g>
<!-- Node5 -->
<g id="node5" class="node">
<title>Node5</title>
<g id="a_node5"><a xlink:href="../../d6/d01/LogLevels_8hpp.html" target="_top" xlink:title="Declares the enum to describe log levels.">
<polygon fill="white" stroke="#666666" points="134.62,-19.25 54.88,-19.25 54.88,0 134.62,0 134.62,-19.25"/>
<text text-anchor="middle" x="94.75" y="-5.75" font-family="Helvetica,sans-Serif" font-size="10.00">LogLevels.hpp</text>
</a>
</g>
</g>
<!-- Node4&#45;&gt;Node5 -->
<g id="edge4" class="edge">
<title>Node4&#45;&gt;Node5</title>
<path fill="none" stroke="#63b8ff" d="M131.48,-55.08C125.41,-47.73 116.55,-37.01 109.06,-27.94"/>
<polygon fill="#63b8ff" stroke="#63b8ff" points="111.24,-26.09 102.17,-20.61 105.85,-30.55 111.24,-26.09"/>
</g>
<!-- Node6 -->
<g id="node6" class="node">
<title>Node6</title>
<g id="a_node6"><a xlink:href="../../d8/d03/Export_8hpp.html" target="_top" xlink:title="Declares the macros to export and import symbols from the library.">
<polygon fill="white" stroke="#666666" points="213.25,-19.25 152.25,-19.25 152.25,0 213.25,0 213.25,-19.25"/>
<text text-anchor="middle" x="182.75" y="-5.75" font-family="Helvetica,sans-Serif" font-size="10.00">Export.hpp</text>
</a>
</g>
</g>
<!-- Node4&#45;&gt;Node6 -->
<g id="edge5" class="edge">
<title>Node4&#45;&gt;Node6</title>
<path fill="none" stroke="#63b8ff" d="M146.02,-55.08C152.09,-47.73 160.95,-37.01 168.44,-27.94"/>
<polygon fill="#63b8ff" stroke="#63b8ff" points="171.65,-30.55 175.33,-20.61 166.26,-26.09 171.65,-30.55"/>
</g>
</g>
</svg>
