<?xml version="1.0" encoding="UTF-8" standalone="no"?>
<!DOCTYPE svg PUBLIC "-//W3C//DTD SVG 1.1//EN"
 "http://www.w3.org/Graphics/SVG/1.1/DTD/svg11.dtd">
<!-- Generated by graphviz version 8.0.5 (20230430.1635)
 -->
<!-- Title: headers/Logging/Logger.hpp Pages: 1 -->
<svg width="389pt" height="138pt"
 viewBox="0.00 0.00 388.62 137.75" xmlns="http://www.w3.org/2000/svg" xmlns:xlink="http://www.w3.org/1999/xlink">
<g id="graph0" class="graph" transform="scale(1 1) rotate(0) translate(4 133.75)">
<title>headers/Logging/Logger.hpp</title>
<!-- Node1 -->
<g id="node1" class="node">
<title>Node1</title>
<g id="a_node1"><a xlink:title="Declares the static struct to handle logging to different sinks.">
<polygon fill="#999999" stroke="#666666" points="215.62,-129.75 76.62,-129.75 76.62,-110.5 215.62,-110.5 215.62,-129.75"/>
<text text-anchor="middle" x="146.12" y="-116.25" font-family="Helvetica,sans-Serif" font-size="10.00">headers/Logging/Logger.hpp</text>
</a>
</g>
</g>
<!-- Node2 -->
<g id="node2" class="node">
<title>Node2</title>
<g id="a_node2"><a xlink:title=" ">
<polygon fill="#e0e0e0" stroke="#999999" points="42.25,-74.5 0,-74.5 0,-55.25 42.25,-55.25 42.25,-74.5"/>
<text text-anchor="middle" x="21.12" y="-61" font-family="Helvetica,sans-Serif" font-size="10.00">cstdio</text>
</a>
</g>
</g>
<!-- Node1&#45;&gt;Node2 -->
<g id="edge1" class="edge">
<title>Node1&#45;&gt;Node2</title>
<path fill="none" stroke="#63b8ff" d="M124.92,-110.09C104.99,-101.6 74.91,-88.79 52.26,-79.14"/>
<polygon fill="#63b8ff" stroke="#63b8ff" points="54.01,-75.65 43.43,-74.95 51.26,-82.09 54.01,-75.65"/>
</g>
<!-- Node3 -->
<g id="node3" class="node">
<title>Node3</title>
<g id="a_node3"><a xlink:title=" ">
<polygon fill="#e0e0e0" stroke="#999999" points="108.25,-74.5 60,-74.5 60,-55.25 108.25,-55.25 108.25,-74.5"/>
<text text-anchor="middle" x="84.12" y="-61" font-family="Helvetica,sans-Serif" font-size="10.00">cstdarg</text>
</a>
</g>
</g>
<!-- Node1&#45;&gt;Node3 -->
<g id="edge2" class="edge">
<title>Node1&#45;&gt;Node3</title>
<path fill="none" stroke="#63b8ff" d="M135.61,-110.09C126.65,-102.4 113.55,-91.15 102.81,-81.93"/>
<polygon fill="#63b8ff" stroke="#63b8ff" points="105.35,-78.64 95.49,-74.77 100.79,-83.95 105.35,-78.64"/>
</g>
<!-- Node4 -->
<g id="node4" class="node">
<title>Node4</title>
<g id="a_node4"><a xlink:title=" ">
<polygon fill="#e0e0e0" stroke="#999999" points="166.12,-74.5 126.12,-74.5 126.12,-55.25 166.12,-55.25 166.12,-74.5"/>
<text text-anchor="middle" x="146.12" y="-61" font-family="Helvetica,sans-Serif" font-size="10.00">ctime</text>
</a>
</g>
</g>
<!-- Node1&#45;&gt;Node4 -->
<g id="edge3" class="edge">
<title>Node1&#45;&gt;Node4</title>
<path fill="none" stroke="#63b8ff" d="M146.12,-110.33C146.12,-103.67 146.12,-94.24 146.12,-85.78"/>
<polygon fill="#63b8ff" stroke="#63b8ff" points="149.63,-85.86 146.12,-75.86 142.63,-85.86 149.63,-85.86"/>
</g>
<!-- Node5 -->
<g id="node5" class="node">
<title>Node5</title>
<g id="a_node5"><a xlink:title=" ">
<polygon fill="#e0e0e0" stroke="#999999" points="227.62,-74.5 184.62,-74.5 184.62,-55.25 227.62,-55.25 227.62,-74.5"/>
<text text-anchor="middle" x="206.12" y="-61" font-family="Helvetica,sans-Serif" font-size="10.00">vector</text>
</a>
</g>
</g>
<!-- Node1&#45;&gt;Node5 -->
<g id="edge4" class="edge">
<title>Node1&#45;&gt;Node5</title>
<path fill="none" stroke="#63b8ff" d="M156.3,-110.09C164.98,-102.4 177.65,-91.15 188.04,-81.93"/>
<polygon fill="#63b8ff" stroke="#63b8ff" points="189.94,-85.03 195.1,-75.77 185.29,-79.79 189.94,-85.03"/>
</g>
<!-- Node6 -->
<g id="node6" class="node">
<title>Node6</title>
<g id="a_node6"><a xlink:href="../../d2/d00/LoggerSink_8hpp.html" target="_top" xlink:title="Declares the interface for a sink for the logger.">
<polygon fill="white" stroke="#666666" points="366.62,-74.5 245.62,-74.5 245.62,-55.25 366.62,-55.25 366.62,-74.5"/>
<text text-anchor="middle" x="306.12" y="-61" font-family="Helvetica,sans-Serif" font-size="10.00">Logging/LoggerSink.hpp</text>
</a>
</g>
</g>
<!-- Node1&#45;&gt;Node6 -->
<g id="edge5" class="edge">
<title>Node1&#45;&gt;Node6</title>
<path fill="none" stroke="#63b8ff" d="M173.27,-110.09C199.47,-101.37 239.37,-88.09 268.61,-78.36"/>
<polygon fill="#63b8ff" stroke="#63b8ff" points="269.47,-81.43 277.85,-74.95 267.26,-74.79 269.47,-81.43"/>
</g>
<!-- Node7 -->
<g id="node7" class="node">
<title>Node7</title>
<g id="a_node7"><a xlink:href="../../d6/d01/LogLevels_8hpp.html" target="_top" xlink:title="Declares the enum to describe log levels.">
<polygon fill="white" stroke="#666666" points="302,-19.25 222.25,-19.25 222.25,0 302,0 302,-19.25"/>
<text text-anchor="middle" x="262.12" y="-5.75" font-family="Helvetica,sans-Serif" font-size="10.00">LogLevels.hpp</text>
</a>
</g>
</g>
<!-- Node6&#45;&gt;Node7 -->
<g id="edge6" class="edge">
<title>Node6&#45;&gt;Node7</title>
<path fill="none" stroke="#63b8ff" d="M298.86,-55.08C292.78,-47.73 283.93,-37.01 276.43,-27.94"/>
<polygon fill="#63b8ff" stroke="#63b8ff" points="278.62,-26.09 269.55,-20.61 273.22,-30.55 278.62,-26.09"/>
</g>
<!-- Node8 -->
<g id="node8" class="node">
<title>Node8</title>
<g id="a_node8"><a xlink:href="../../d8/d03/Export_8hpp.html" target="_top" xlink:title="Declares the macros to export and import symbols from the library.">
<polygon fill="white" stroke="#666666" points="380.62,-19.25 319.62,-19.25 319.62,0 380.62,0 380.62,-19.25"/>
<text text-anchor="middle" x="350.12" y="-5.75" font-family="Helvetica,sans-Serif" font-size="10.00">Export.hpp</text>
</a>
</g>
</g>
<!-- Node6&#45;&gt;Node8 -->
<g id="edge7" class="edge">
<title>Node6&#45;&gt;Node8</title>
<path fill="none" stroke="#63b8ff" d="M313.39,-55.08C319.47,-47.73 328.32,-37.01 335.82,-27.94"/>
<polygon fill="#63b8ff" stroke="#63b8ff" points="339.03,-30.55 342.7,-20.61 333.63,-26.09 339.03,-30.55"/>
</g>
</g>
</svg>
